<?xml version="1.0" standalone="no"?>
<!DOCTYPE svg PUBLIC "-//W3C//DTD SVG 20010904//EN"
 "http://www.w3.org/TR/2001/REC-SVG-20010904/DTD/svg10.dtd">
<svg version="1.0" xmlns="http://www.w3.org/2000/svg"
 width="512.000000pt" height="512.000000pt" viewBox="0 0 512.000000 512.000000"
 preserveAspectRatio="xMidYMid meet">
<metadata>
Created by potrace 1.15, written by Peter Selinger 2001-2017
</metadata>
<g transform="translate(0.000000,512.000000) scale(0.100000,-0.100000)"
fill="#000000" stroke="none">
<path d="M980 4228 c-24 -13 -46 -28 -48 -35 -2 -7 53 -40 127 -78 166 -84
176 -92 175 -142 -2 -68 -72 -176 -136 -209 -28 -15 -32 -13 -171 65 l-142 80
-3 -54 c-8 -150 135 -281 352 -322 45 -8 106 -28 136 -43 63 -32 162 -108 155
-119 -6 -11 -98 -44 -210 -76 -182 -52 -381 -70 -476 -41 -25 8 -93 35 -151
60 -58 25 -113 46 -122 46 -31 0 -19 -202 30 -497 30 -182 75 -322 142 -438
42 -71 182 -215 241 -244 72 -37 482 -168 632 -202 l56 -13 1 -70 c0 -39 2
-80 4 -91 3 -20 -123 -144 -486 -480 -65 -60 -125 -124 -132 -142 -8 -18 -14
-56 -14 -86 0 -47 4 -59 35 -94 56 -66 132 -79 217 -39 19 9 99 85 178 169 79
83 201 212 271 284 l126 133 17 -68 c9 -37 30 -89 46 -115 52 -83 51 -91 -17
-126 -32 -16 -67 -36 -77 -44 -18 -13 -16 -15 33 -32 29 -9 49 -20 44 -24 -4
-5 -84 -61 -176 -126 -92 -65 -166 -119 -164 -121 1 -2 99 46 217 106 118 60
218 109 222 110 4 0 15 -17 23 -37 22 -52 71 -101 123 -124 137 -60 400 -103
567 -94 228 13 365 44 407 91 9 10 32 57 52 104 22 52 40 84 48 82 7 -2 116
-57 242 -123 125 -66 230 -119 232 -116 2 2 -75 59 -172 126 -96 68 -174 124
-172 126 2 2 25 12 53 23 l49 19 -74 41 c-123 68 -116 51 -76 172 41 127 56
161 67 154 5 -3 9 -26 9 -52 1 -53 20 -139 43 -195 53 -124 140 -160 213 -88
l30 29 108 -116 c168 -182 215 -212 310 -198 111 17 165 139 110 247 -7 15
-77 87 -156 160 -318 298 -303 282 -316 351 -6 35 -21 75 -33 91 -11 15 -20
40 -19 55 6 83 0 112 -31 147 l-31 35 183 0 c171 0 188 2 242 24 183 76 352
242 438 432 63 139 88 292 69 423 -18 117 -24 121 -199 121 -231 1 -358 28
-492 106 -68 39 -229 193 -229 218 0 21 110 111 180 146 32 16 89 34 126 40
146 24 288 109 336 204 24 48 38 166 18 166 -6 0 -72 -34 -147 -76 l-134 -76
-47 29 c-38 23 -54 43 -85 103 -42 82 -44 121 -6 152 11 9 78 47 149 83 142
72 147 80 76 115 -90 43 -246 19 -364 -56 -130 -84 -181 -179 -202 -377 -14
-141 -18 -159 -38 -185 l-19 -24 -43 74 c-74 124 -129 192 -297 365 -96 100
-210 143 -377 143 -171 -1 -346 -46 -548 -143 -186 -90 -309 -191 -444 -365
-44 -57 -59 -70 -70 -62 -20 17 -31 64 -44 180 -23 216 -66 300 -199 393 -109
75 -281 101 -371 55z m243 -9 c111 -37 208 -109 250 -187 35 -65 52 -135 67
-272 9 -90 17 -123 36 -152 19 -30 21 -38 9 -48 -23 -19 -61 46 -98 169 -27
87 -42 120 -68 147 -42 43 -59 44 -59 2 0 -88 -47 -161 -132 -204 -26 -13 -48
-26 -48 -29 0 -3 36 -29 80 -58 78 -52 210 -170 210 -187 0 -25 -26 -16 -86
30 -91 70 -153 99 -248 117 -104 19 -192 59 -251 114 -58 53 -85 105 -92 176
l-6 55 24 -12 c13 -7 75 -42 138 -77 127 -73 138 -74 199 -18 47 42 102 146
102 192 0 47 -26 68 -175 144 -69 35 -125 68 -125 72 0 4 19 17 43 27 57 26
150 26 230 -1z m2775 -5 c18 -10 32 -21 32 -24 0 -3 -46 -28 -103 -57 -56 -29
-123 -66 -149 -82 -44 -28 -48 -34 -48 -71 0 -38 38 -128 72 -171 19 -23 88
-69 105 -69 7 0 70 32 138 71 69 38 130 67 136 63 15 -9 2 -88 -21 -134 -46
-90 -178 -170 -320 -195 -97 -17 -164 -50 -257 -126 -66 -54 -72 -57 -78 -38
-6 17 6 33 56 80 35 33 104 87 152 120 76 52 99 79 67 79 -6 0 -32 14 -59 30
-60 37 -101 109 -101 177 0 24 -4 43 -10 43 -5 0 -25 -14 -45 -31 -30 -26 -41
-49 -71 -148 -40 -128 -76 -190 -100 -170 -12 9 -11 16 7 41 16 22 26 64 39
171 19 149 35 204 75 273 43 73 169 158 272 184 59 15 174 6 211 -16z m-2586
-351 c17 -19 39 -68 63 -146 25 -80 46 -129 65 -150 l28 -32 -41 -58 -40 -58
-26 24 c-14 12 -49 43 -77 69 -28 25 -81 65 -118 88 l-68 43 38 20 c82 41 133
114 134 190 0 44 8 46 42 10z m2198 -34 c14 -72 50 -123 110 -157 27 -15 50
-29 50 -32 0 -3 -33 -27 -73 -53 -39 -26 -104 -77 -143 -112 l-71 -65 -37 60
-38 61 31 34 c19 22 38 62 51 107 34 121 51 162 78 190 14 15 27 26 29 25 1
-2 7 -28 13 -58z m-1012 -118 c79 -11 146 -22 149 -25 5 -5 -57 -266 -74 -313
-3 -6 5 -13 17 -15 19 -3 16 -9 -34 -65 l-57 -62 37 -3 36 -3 -122 -104 c-68
-58 -136 -116 -153 -130 l-31 -26 41 75 c23 41 98 198 167 348 120 264 124
273 98 268 -21 -4 -290 -46 -296 -46 -1 0 2 27 8 60 12 71 -2 69 214 41z m418
-48 c13 -17 15 -17 28 1 16 20 36 14 36 -10 0 -11 8 -14 27 -12 19 2 28 -2 29
-12 2 -36 5 -41 20 -38 10 2 19 -3 21 -9 3 -7 0 -13 -6 -13 -17 0 -13 -28 6
-38 16 -9 16 -11 0 -27 -20 -19 -21 -27 -5 -43 8 -8 5 -14 -16 -22 -22 -8 -26
-14 -21 -31 7 -19 4 -21 -20 -15 -22 6 -28 3 -32 -14 -5 -20 -33 -29 -33 -10
0 6 -9 10 -20 10 -11 0 -20 -4 -20 -10 0 -5 -4 -10 -10 -10 -5 0 -10 6 -10 14
0 17 -24 28 -45 20 -10 -4 -15 0 -15 15 0 14 -9 25 -25 31 -23 9 -24 12 -13
30 11 18 10 23 -6 36 -19 14 -19 14 -1 28 10 7 16 19 13 27 -3 8 -7 18 -9 24
-2 5 5 10 16 10 15 0 20 7 20 25 0 20 5 24 30 25 17 0 30 6 31 13 3 28 11 30
30 5z m-802 -70 c-7 -32 -13 -60 -14 -64 0 -3 -31 10 -70 29 -40 19 -93 36
-123 39 l-54 5 -6 -38 c-8 -49 -9 -204 -1 -204 3 0 31 7 61 16 135 39 240 -19
259 -143 10 -68 -10 -120 -66 -175 -51 -49 -88 -65 -177 -75 -44 -5 -61 -1
-108 21 -59 29 -105 83 -105 123 0 26 27 32 36 8 5 -11 11 -12 24 -5 11 6 21
6 24 1 3 -5 -1 -11 -9 -15 -23 -8 -18 -32 11 -55 33 -26 40 -26 47 -1 3 11 10
20 16 20 7 0 9 -10 5 -25 -6 -23 -3 -25 24 -25 17 0 42 4 57 10 25 9 25 11 10
39 -20 40 -2 50 28 15 l24 -27 21 35 c12 20 22 52 22 71 0 35 -1 36 -25 27
-19 -7 -25 -6 -25 4 0 8 12 18 26 23 l25 8 -23 35 c-30 44 -55 50 -64 16 -3
-15 -11 -23 -19 -19 -10 3 -11 11 -4 30 12 33 13 33 -18 33 -54 0 -70 -10 -65
-36 5 -30 -14 -32 -21 -3 -4 16 -11 20 -25 17 -17 -5 -22 3 -35 53 -12 50 -13
59 -1 59 8 0 14 10 14 24 0 19 -4 23 -20 19 -25 -7 -26 14 -1 22 30 9 16 47
-15 39 -15 -4 -24 -2 -24 6 0 6 9 14 20 17 13 3 20 14 20 29 0 19 -5 22 -27
21 -18 -1 -28 3 -31 14 -4 23 96 36 280 38 l136 1 -14 -57z m834 -243 c13 -21
52 -28 52 -9 0 20 24 3 30 -22 4 -17 13 -24 30 -24 31 0 41 -13 27 -36 -13
-21 7 -51 29 -42 9 3 14 -2 14 -16 0 -12 -6 -21 -15 -21 -20 0 -19 -37 1 -48
19 -10 11 -32 -11 -32 -19 0 -39 -37 -24 -45 19 -12 3 -30 -27 -30 -21 0 -30
-5 -32 -20 -6 -30 -20 -41 -34 -27 -17 17 -48 15 -48 -3 0 -8 -9 -15 -20 -15
-11 0 -20 6 -20 14 0 18 -30 30 -44 16 -18 -18 -35 -11 -38 18 -2 22 -7 27
-30 25 -15 -1 -29 5 -32 13 -3 8 -1 14 5 14 21 0 4 45 -18 48 -26 4 -31 27 -8
36 19 7 20 45 1 52 -20 8 -8 34 14 34 22 0 34 28 19 46 -9 11 -7 15 5 20 9 4
20 4 23 1 12 -13 44 14 38 32 -7 22 21 37 29 15 8 -20 34 -17 48 6 7 11 15 20
18 20 3 0 11 -9 18 -20z m-1274 -675 c142 -40 322 -76 661 -131 55 -10 104
-20 108 -24 4 -4 0 -23 -9 -43 -14 -30 -16 -48 -8 -117 15 -126 10 -147 -44
-178 -77 -46 -110 -80 -132 -139 -32 -87 -138 -299 -157 -314 -12 -10 -54 -14
-159 -14 -160 0 -161 0 -184 -72 -25 -78 -36 -77 -128 18 -45 46 -94 108 -108
136 l-26 53 13 107 c17 144 17 328 0 438 -13 86 -8 325 7 325 3 0 77 -20 166
-45z m878 29 l36 -6 -39 -41 c-21 -23 -39 -45 -39 -50 0 -15 -113 -1 -320 39
-337 64 -337 62 15 63 171 0 327 -2 347 -5z m418 -50 c107 -18 213 -38 235
-45 38 -11 39 -12 16 -21 -14 -5 -81 -14 -151 -20 -106 -9 -160 -8 -326 6
-109 10 -200 19 -202 21 -8 7 65 79 93 91 37 16 82 12 335 -32z m444 -201
c-22 -95 -37 -291 -30 -376 6 -63 12 -82 31 -100 28 -26 45 -67 45 -109 0 -33
-31 -66 -115 -127 -32 -23 -45 -28 -45 -17 0 21 49 76 68 76 44 0 63 54 41
119 -27 76 -91 55 -225 -71 -93 -89 -108 -118 -76 -151 19 -18 25 -19 57 -9
31 9 36 8 31 -5 -3 -8 -6 -19 -6 -24 0 -6 -37 -7 -99 -3 l-99 7 -10 -34 c-6
-19 -18 -63 -27 -99 -9 -36 -18 -70 -20 -77 -2 -7 -72 14 -201 63 -151 57
-200 71 -206 62 -4 -7 -7 -42 -6 -78 l3 -65 80 -16 c46 -10 67 -17 50 -18 -58
-2 -75 -11 -74 -40 1 -21 2 -22 6 -6 7 26 21 35 60 35 39 0 43 -6 50 -73 l5
-52 71 2 c38 2 76 8 83 14 9 7 33 1 88 -25 77 -35 82 -43 56 -81 -4 -5 -10
-23 -14 -39 -13 -54 -76 -173 -99 -188 -12 -9 -38 -19 -57 -22 -19 -4 -42 -10
-52 -12 -13 -4 -23 15 -48 90 -17 52 -38 100 -47 108 -12 10 -75 14 -250 17
-206 3 -236 1 -252 -13 -10 -9 -31 -55 -47 -101 -27 -80 -30 -84 -54 -78 -58
14 -132 46 -161 70 -30 26 -87 123 -71 123 4 0 17 7 28 15 18 14 18 15 -10 38
l-28 23 91 42 c72 33 96 40 111 32 10 -5 34 -10 52 -9 37 1 31 4 -26 14 -27 5
-35 9 -26 15 10 6 11 12 2 22 -21 26 -3 55 36 62 71 11 72 11 72 -44 0 -33 -4
-50 -12 -51 -10 0 -10 -2 0 -6 6 -2 12 -13 12 -24 0 -20 26 -25 94 -21 16 2
33 -2 36 -9 5 -7 31 1 79 25 l71 36 0 -39 c0 -37 1 -39 38 -43 52 -7 118 5
114 21 -2 9 7 11 35 7 21 -3 54 -1 73 4 l35 9 -45 -1 c-93 -3 -100 -1 -100 31
0 59 -12 92 -37 102 -35 13 -103 0 -104 -20 -1 -14 -2 -14 -6 1 -4 15 -78 37
-89 25 -3 -2 13 -7 36 -11 39 -6 40 -8 40 -44 0 -37 -2 -39 -66 -70 -65 -32
-66 -33 -61 -10 3 13 9 43 13 68 4 25 12 49 18 53 7 6 6 7 -4 4 -8 -2 -18 -17
-21 -33 -5 -28 -6 -27 -13 14 -7 37 -11 42 -34 41 -22 -1 -23 -2 -6 -6 25 -5
34 -29 34 -95 0 -44 -2 -47 -27 -50 -16 -2 -43 -1 -62 1 -31 3 -33 5 -27 35
13 65 17 112 7 91 -9 -19 -10 -19 -10 3 -1 18 3 21 22 17 12 -3 36 1 52 9 17
9 39 16 50 16 61 1 65 7 65 91 0 44 -2 79 -4 79 -2 0 -84 -29 -181 -65 -97
-36 -180 -65 -185 -65 -4 0 -23 44 -40 98 -18 53 -39 102 -46 108 -10 8 -27 9
-56 3 -44 -10 -54 -7 -43 12 6 8 26 9 74 3 100 -12 164 -9 214 10 43 16 47 22
107 138 34 66 72 150 84 187 19 60 26 69 71 98 124 79 132 95 114 232 -11 81
-11 88 10 129 19 36 25 42 44 36 12 -3 23 -7 23 -8 1 0 20 -66 43 -146 55
-189 76 -233 150 -312 81 -87 134 -110 251 -111 100 0 145 18 203 82 76 84 82
106 82 296 l0 170 55 26 c49 23 58 25 81 13 l27 -13 -14 -58z m-24 -564 c17
-32 8 -51 -35 -73 -31 -16 -47 -35 -70 -81 -28 -56 -30 -67 -30 -170 1 -93 4
-118 24 -163 42 -94 106 -119 155 -62 38 46 56 121 57 234 0 96 -1 100 -32
144 -31 43 -31 46 -14 58 48 35 80 -62 80 -241 0 -100 -4 -131 -24 -188 -30
-87 -83 -147 -131 -147 -44 0 -100 57 -131 135 -21 54 -23 76 -24 215 0 136 3
163 23 221 38 112 121 176 152 118z m-1951 -223 c-41 -39 -144 -138 -229 -219
-143 -136 -153 -149 -135 -160 24 -15 63 -54 91 -90 l21 -28 43 48 c24 27 122
129 218 228 l174 179 19 -24 c10 -14 19 -28 19 -32 0 -18 -547 -579 -580 -595
-102 -48 -216 8 -228 112 -9 83 4 100 231 312 117 109 255 239 307 289 91 89
95 91 109 72 13 -19 9 -25 -60 -92z m1999 40 c29 -33 30 -39 31 -128 1 -51 -2
-108 -5 -127 l-7 -33 -94 93 c-81 81 -93 97 -88 119 6 24 50 69 68 70 5 0 32
-20 60 -45 28 -24 53 -42 56 -39 4 3 -18 27 -47 52 -48 43 -51 48 -35 59 26
17 28 16 61 -21z m-1870 -28 l41 -43 -206 -215 c-114 -118 -211 -216 -217
-218 -6 -1 -21 14 -34 33 -12 20 -34 41 -48 47 -13 6 -23 15 -22 20 4 10 430
417 438 418 3 0 25 -19 48 -42z m257 -70 c4 -23 20 -70 36 -106 16 -35 29 -67
29 -71 0 -4 -18 -14 -40 -21 -22 -7 -40 -17 -40 -21 0 -4 16 -17 36 -30 l36
-22 -39 -21 -38 -22 -23 45 c-13 26 -30 53 -37 61 -11 12 -45 121 -45 144 0 3
8 6 18 6 23 0 47 26 57 60 7 24 22 40 37 40 3 0 9 -19 13 -42z m1335 -14 c-16
-26 -46 -97 -66 -158 -20 -61 -39 -114 -43 -118 -3 -4 -17 -1 -31 7 l-24 13
38 23 39 23 -34 15 c-19 8 -35 16 -37 17 -1 0 11 27 28 59 23 43 30 70 30 111
l0 54 65 0 65 0 -30 -46z m728 -306 c51 -49 98 -101 106 -116 25 -51 26 -97 3
-143 -31 -60 -64 -82 -129 -82 -75 -2 -116 25 -239 156 -146 156 -144 152
-129 187 7 17 16 30 20 30 4 0 42 -36 83 -79 l76 -80 33 42 c18 23 37 44 41
46 5 2 19 13 32 25 l23 21 -128 120 c-115 107 -129 124 -129 153 l-1 34 123
-113 c67 -62 164 -152 215 -201z m-438 111 c0 -3 -10 -18 -21 -33 -21 -26 -22
-27 -42 -9 -11 10 -42 44 -68 76 -43 51 -49 63 -49 105 l0 47 90 -90 c50 -49
90 -92 90 -96z m275 -49 c43 -45 56 -64 46 -68 -18 -6 -50 -38 -73 -72 l-17
-25 -80 80 -79 81 14 54 c8 30 14 67 14 83 l0 29 58 -50 c31 -28 84 -78 117
-112z m-1168 16 c1 0 4 -33 8 -72 l7 -71 -30 -5 c-16 -2 -46 -2 -66 0 l-36 4
0 62 c0 68 6 81 35 89 16 4 74 -1 82 -7z m72 -274 l44 -7 29 -85 c15 -46 25
-87 20 -91 -14 -14 -246 -32 -332 -26 -83 6 -238 32 -247 41 -5 5 33 128 49
159 8 15 28 17 201 16 106 0 212 -4 236 -7z"/>
<path d="M2966 3569 c-31 -36 -32 -54 -7 -96 35 -56 115 -53 146 7 46 88 -75
166 -139 89z"/>
<path d="M2980 3263 c-76 -39 -89 -128 -28 -185 24 -22 40 -28 75 -28 38 0 50
5 79 34 37 37 45 82 22 130 -24 53 -93 76 -148 49z"/>
<path d="M1670 2548 c-39 -9 -42 -12 -27 -23 9 -6 46 -15 81 -18 35 -3 94 -18
131 -33 l68 -27 -27 -20 c-15 -10 -36 -37 -46 -58 -33 -64 -23 -128 27 -181
24 -25 25 -30 16 -78 l-10 -50 30 0 c24 0 28 -3 22 -17 -3 -10 -9 -30 -12 -45
-5 -25 -3 -28 21 -28 30 0 30 1 12 -98 -17 -94 -9 -86 77 80 l66 127 -29 -6
c-23 -4 -30 -2 -30 10 0 31 13 47 56 67 53 26 84 67 91 121 5 35 9 40 28 35
60 -15 128 36 128 97 0 56 -64 80 -105 39 -25 -24 -41 -21 -215 49 -169 68
-246 81 -353 57z"/>
<path d="M2522 2054 c-5 -11 -24 -62 -41 -115 -17 -53 -54 -136 -82 -184 -28
-49 -53 -94 -56 -101 -3 -7 18 -13 64 -17 37 -3 77 -9 89 -12 18 -6 22 -1 28
25 3 18 6 69 6 114 0 56 3 76 10 66 5 -8 10 -59 10 -113 l0 -99 33 9 c17 4 60
7 95 7 34 -1 62 1 62 5 0 3 -14 26 -31 51 -48 72 -88 155 -126 264 -39 113
-47 126 -61 100z"/>
</g>
</svg>
